<?xml version="1.0" encoding="utf-8"?>
<!-- Generator: Adobe Illustrator 22.0.1, SVG Export Plug-In . SVG Version: 6.00 Build 0)  -->
<svg version="1.1" id="ÉåÉCÉÑÅ_1" xmlns="http://www.w3.org/2000/svg" xmlns:xlink="http://www.w3.org/1999/xlink" x="0px"
	 y="0px" viewBox="0 0 283.5 68.3" style="enable-background:new 0 0 283.5 68.3;" xml:space="preserve">
<style type="text/css">
	.st0{fill:#FFFFFF;}
</style>
<title>Artboard 1</title>
<path class="st0" d="M196.2,0c-19.2,0-30.3,14.4-30.3,34.1s11.1,34.1,30.3,34.1s30.3-14.4,30.3-34.1S215.4,0,196.2,0z M196.2,56.8
	c-12.2,0-16.9-11.2-16.9-22.6s4.7-22.6,16.9-22.6s16.9,11.2,16.9,22.6S208.4,56.8,196.2,56.8z"/>
<polygon class="st0" points="0,1.9 48.2,1.9 48.2,13.4 13.4,13.4 13.4,27.7 45.8,27.7 45.8,38.9 13.4,38.9 13.4,54.9 48.2,54.9 
	48.2,66.4 0,66.4 "/>
<path class="st0" d="M53.9,66.4h13.4V47h12.1c16.4,0,27.4-8.1,27.4-22.5S95.8,1.9,79.4,1.9H53.9V66.4z M79.4,35.6H67.3V13.4h12.1
	c8.4,0,14,3.7,14,11.1S87.8,35.6,79.4,35.6z"/>
<path class="st0" d="M245.3,1.9h-13.8v64.4h13.1V40.3c0-7.1-0.3-13.5-0.5-19.1c1.5,3.2,6.2,12.9,8.4,16.5l17.1,28.6h13.8V1.9h-13.1
	v25.4c0,7.1,0.3,14.1,0.5,19.7c-1.5-3.2-6.2-12.9-8.4-16.5L245.3,1.9z"/>
<path class="st0" d="M122,45c0,8.7,7.2,12,14.9,12c5,0,13.1-1.5,13.1-8.1c0-7-9.9-8.3-19.5-10.9c-10-2.6-19.7-6.4-19.7-18.4
	C110.8,6.4,123.4,0,135.2,0c13.6,0,26.1,5.9,26.1,21h-13.4c-0.5-7.8-6.5-9.9-13.3-9.9c-4.6,0-10.3,1.9-10.3,7.4c0,5,3.3,5.8,19.6,10
	c4.7,1.2,19.6,4,19.6,18.8c0,11.9-9.4,20.9-27.1,20.9c-14.4,0-27.9-7.1-27.7-23.1L122,45z"/>
</svg>
